# xmcd
#
# Track frame offsets:
#	150
#	13278
#	25470
#	37572
#	50145
#	61597
#	73939
#	85754
#	97857
#	109003
#	122355
#	132420
#	144839
#	158407
#	171368
#	183297
#	193822
#	205956
#	217793
#	228202
#	242486
#	254232
#	266872
#	281649
#	294746
#
# Disc length: 4102 seconds
#
# Revision: 0
# Processed by: cddbd v1.5.2PL0 Copyright (c) Steve Scherf et al.
# Submitted via: dBpowerAMP V4.0
#
DISCID=67100419
DTITLE=Eddy Arnold - Essential Gold Bouquet Of Roses CD 3
DYEAR=2006
DGENRE=Country
TTITLE0=Softly And Tenderly
TTITLE1=Beautiful Isle Of Somewhere
TTITLE2=Trouble In Mind
TTITLE3=Shepherd Of My Mind
TTITLE4=You Know How Talk Gets Around
TTITLE5=This Is The Thanks I Get For Loving You
TTITLE6=It Makes No Difference Now
TTITLE7=I Couldn't Believe It Was True
TTITLE8=Show Me The Way Back To Your Heart
TTITLE9=Why Should I Cry
TTITLE10=Bundle Of Southern Sunshine
TTITLE11=Chained To A Memory
TTITLE12=Molly Darling
TTITLE13=Each Minute Seems A Million Years
TTITLE14=Mama And Daddy Broke My Heart
TTITLE15=Older And Bolder
TTITLE16=The Echo Of Your Footsteps
TTITLE17=Enclosed One Broken Heart
TTITLE18=Free Home Demonstration
TTITLE19=My Daddy Is Only A Picture
TTITLE20=All Alone In This World Without You
TTITLE21=Bring Your Roses To Her Now
TTITLE22=Many Tears Ago
TTITLE23=A Million Miles From Your Heart
TTITLE24=May The Good Lord Bless And Keep You
EXTD=
EXTT0=
EXTT1=
EXTT2=
EXTT3=
EXTT4=
EXTT5=
EXTT6=
EXTT7=
EXTT8=
EXTT9=
EXTT10=
EXTT11=
EXTT12=
EXTT13=
EXTT14=
EXTT15=
EXTT16=
EXTT17=
EXTT18=
EXTT19=
EXTT20=
EXTT21=
EXTT22=
EXTT23=
EXTT24=
PLAYORDER=
